<svg width="24" height="24" viewBox="0 0 24 24" fill="none" xmlns="http://www.w3.org/2000/svg">
<mask id="path-1-inside-1_68830_40" fill="white">
<path d="M3.13346 23.2461L19.2688 7.11084V21.9336L23.0208 21.9203V0.707104H1.80764V4.44593L16.6171 4.45919L0.481812 20.5945L3.13346 23.2461Z"/>
</mask>
<path d="M3.13346 23.2461L19.2688 7.11084V21.9336L23.0208 21.9203V0.707104H1.80764V4.44593L16.6171 4.45919L0.481812 20.5945L3.13346 23.2461Z" fill="#827081"/>
<path d="M3.13346 23.2461L-1.81629 28.1959L3.13346 33.1456L8.08321 28.1959L3.13346 23.2461ZM19.2688 7.11084H26.2688L26.2688 -9.78866L14.319 2.16109L19.2688 7.11084ZM19.2688 21.9336H12.2688V28.9583L19.2935 28.9335L19.2688 21.9336ZM23.0208 21.9203L23.0456 28.9203L30.0208 28.8956L30.0208 21.9203H23.0208ZM23.0208 0.707104H30.0208V-6.2929H23.0208V0.707104ZM1.80764 0.707104V-6.2929L-5.19236 -6.2929L-5.19236 0.707104L1.80764 0.707104ZM1.80764 4.44593L-5.19236 4.44593L-5.19236 11.4397L1.80137 11.4459L1.80764 4.44593ZM16.6171 4.45919L21.5669 9.40894L33.5015 -2.5257L16.6234 -2.54081L16.6171 4.45919ZM0.481812 20.5945L-4.46794 15.6447L-9.41768 20.5945L-4.46794 25.5442L0.481812 20.5945ZM8.08321 28.1959L24.2185 12.0606L14.319 2.16109L-1.81629 18.2964L8.08321 28.1959ZM12.2688 7.11084V21.9336H26.2688V7.11084H12.2688ZM19.2935 28.9335L23.0456 28.9203L22.9961 14.9204L19.244 14.9336L19.2935 28.9335ZM30.0208 21.9203V0.707104H16.0208V21.9203H30.0208ZM23.0208 -6.2929L1.80764 -6.2929V7.7071L23.0208 7.7071V-6.2929ZM-5.19236 0.707104V4.44593L8.80764 4.44593L8.80764 0.707104H-5.19236ZM1.80137 11.4459L16.6108 11.4592L16.6234 -2.54081L1.8139 -2.55407L1.80137 11.4459ZM11.6674 -0.490558L-4.46794 15.6447L5.43156 25.5442L21.5669 9.40894L11.6674 -0.490558ZM-4.46794 25.5442L-1.81629 28.1959L8.08321 18.2964L5.43156 15.6447L-4.46794 25.5442Z" fill="#827081" mask="url(#path-1-inside-1_68830_40)"/>
</svg>
